<svg height="512" viewBox="0 0 61 60" width="512" xmlns="http://www.w3.org/2000/svg"><g id="Page-1" fill="none" fill-rule="evenodd"><g id="015---Hedge-Trimming" fill="rgb(0,0,0)" fill-rule="nonzero" transform="translate(-1)"><path id="Shape" d="m14.71 43.65c.1893127-.1877666.2957983-.4433625.2957983-.71s-.1064856-.5222334-.2957983-.71l-5-4.95c-.39003745-.3877236-1.01996255-.3877236-1.41 0-.18931265.1877666-.29579832.4433625-.29579832.71s.10648567.5222334.29579832.71l5 4.95c.3900375.3877236 1.0199625.3877236 1.41 0z"/><path id="Shape" d="m16.13 40.82c.3900375.3877236 1.0199625.3877236 1.41 0 .3877236-.3900375.3877236-1.0199625 0-1.41l-4.95-4.95c-.3967603-.3397768-.9881942-.3169323-1.3575632.0524368-.3693691.369369-.3922136.9608029-.0524368 1.3575632z"/><path id="Shape" d="m25.32 29.8c.265803.0015368.5212812-.1028135.71-.29l13.43-13.44c.3397768-.3967603.3169323-.9881942-.0524368-1.3575632-.369369-.3693691-.9608029-.3922136-1.3575632-.0524368l-13.44 13.43c-.1893127.1877666-.2957983.4433625-.2957983.71s.1064856.5222334.2957983.71c.1887188.1871865.444197.2915368.71.29z"/><path id="Shape" d="m45.88 0c-2.88 0-5.65 2.28-8.25 6.79-.2484017.47485043-.0783237 1.06110625.3856398 1.32929323.4639634.26818697 1.0568642.12295937 1.3443602-.32929323 1.53-2.64 3.89-5.79 6.52-5.79 6.93 0 13.41 21.12 13.41 30.71 0 9-6 16.29-13.41 16.29-5.84 0-11-4.54-12.77-11.3-.1461291-.5282319-.6902208-.8404156-1.22-.7-.2578875.067951-.4779489.2360982-.6112738.4670696s-.1688668.5056298-.0987262.7629304c1.63 6.12 5.76 10.64 10.82 12.18v6.59c0 1.6568542 1.3431458 3 3 3h2c1.6568542 0 3-1.3431458 3-3v-6.68c6.5-2.15 11.29-9.22 11.29-17.61 0-9.71-6.51-32.71-15.41-32.71zm2.12 57c0 .5522847-.4477153 1-1 1h-2c-.5522847 0-1-.4477153-1-1v-6.15c.6222085.0954508 1.2505282.1455827 1.88.15.71057-.0073557 1.419446-.070887 2.12-.19z"/><path id="Shape" d="m40 38c-.2729969.0286468-.5443384-.0674658-.7384363-.2615637s-.2902105-.4654394-.2615637-.7384363c0-.5522847-.4477153-1-1-1s-1 .4477153-1 1c-.0252479.8031236.2827077 1.5809429.8508824 2.1491176s1.345994.8761303 2.1491176.8508824c.5522847 0 1-.4477153 1-1s-.4477153-1-1-1z"/><path id="Shape" d="m46 32c0-.5522847-.4477153-1-1-1-.2729969.0286468-.5443384-.0674658-.7384363-.2615637s-.2902105-.4654394-.2615637-.7384363c0-.5522847-.4477153-1-1-1s-1 .4477153-1 1c-.0252479.8031236.2827077 1.5809429.8508824 2.1491176s1.345994.8761303 2.1491176.8508824c.5522847 0 1-.4477153 1-1z"/><path id="Shape" d="m47 40c.5522847 0 1-.4477153 1-1s-.4477153-1-1-1c-.2729969.0286468-.5443384-.0674658-.7384363-.2615637s-.2902105-.4654394-.2615637-.7384363c0-.5522847-.4477153-1-1-1s-1 .4477153-1 1c-.0252479.8031236.2827077 1.5809429.8508824 2.1491176s1.345994.8761303 2.1491176.8508824z"/><path id="Shape" d="m24 57c1.0093808-1.0028351 1.3134843-2.5158275.7699678-3.8307867s-1.8271109-2.1717031-3.2499678-2.1692133h-14.24c-.70243364-.010726-1.26927396-.5775664-1.28-1.28-.00045651-.2336522.08091885-.4600879.23-.64l3.12-3.73 3.24 3.25c.3751365.3755541.8841815.5865733 1.415.5865733s1.0398635-.2110192 1.415-.5865733l9.19-9.19c.9930321-1.0148853 1.3736179-2.4801406 1-3.85l2.54-2.56 2.12 2.12c.1870714.1908556.4427541.2988906.71.3.2637693-.003757.5153695-.1115857.7-.3.3877236-.3900375.3877236-1.0199625 0-1.41l-2.12-2.12 2.12-2.12 2.13 2.12c.1862606.1847442.4376601.2888954.7.29.265803.0015368.5212812-.1028135.71-.29.1893127-.1877666.2957983-.4433625.2957983-.71s-.1064856-.5222334-.2957983-.71l-2.12-2.08 2.12-2.09 2.12 2.12c.1887188.1871865.444197.2915368.71.29.4018897-.0016616.7637369-.2437563.918621-.6146054.154884-.3708491.0727076-.7983888-.208621-1.0853946l-2.13-2.12 2.13-2.13 2.12 2.13c.2536586.2518723.622421.3492866.9673781.255548.344957-.0937387.6137015-.3643892.705-.7100001s-.0087195-.7136757-.2623781-.9655479l-2.12-2.17 2.12-2.12 2.12 2.12c.1877666.1893127.4433625.2957983.71.2957983s.5222334-.1064856.71-.2957983c.3877236-.3900375.3877236-1.0199625 0-1.41l-2.2-2.2c.5470932-.8159923.8362715-1.7775973.83-2.76-.0058045-1.8360812-1.017478-3.5212747-2.6352406-4.3896479s-3.5813277-.78021097-5.1147594.2296479l-2.2-2.2c-.3900375-.38772359-1.0199625-.38772359-1.41 0-.1893127.1877666-.2957983.44336246-.2957983.71s.1064856.5222334.2957983.71l2.12 2.12-2.12 2.19-2.1-2.17c-.1877666-.1893127-.4433625-.2957983-.71-.2957983s-.5222334.1064856-.71.2957983c-.3877236.3900375-.3877236 1.0199625 0 1.41l2.12 2.12-2.12 2.13-2.12-2.13c-.3900375-.3877236-1.0199625-.3877236-1.41 0-.1893127.1877666-.2957983.4433625-.2957983.71s.1064856.5222334.2957983.71l2.12 2.12-2.17 2.1-2.09-2.1c-.1877666-.1893127-.4433625-.2957983-.71-.2957983s-.5222334.1064856-.71.2957983c-.3877236.3900375-.3877236 1.0199625 0 1.41l2.12 2.13-2.12 2.12-2.12-2.12c-.3900375-.3877236-1.0199625-.3877236-1.41 0-.3877236.3900375-.3877236 1.0199625 0 1.41l2.12 2.15-2.08 2.09-2.17-2.09c-.3751365-.3755541-.8841815-.5865733-1.415-.5865733s-1.0398635.2110192-1.415.5865733l-.18.17-3.71-2.1c-1.56132178-.8663507-3.50776255-.5929512-4.77.67l-3.17 3.17c-1.26295123 1.2622374-1.53635067 3.2086782-.67 4.77l2.07 3.72-.17.18c-.37555409.3751365-.58657331.8841815-.58657331 1.415s.21101922 1.0398635.58657331 1.415l4.53 4.52-3.24 3.87c-.4435832.5418173-.68722184 1.2197683-.69 1.92 0 1.811494 1.46850602 3.28 3.28 3.28h14.22c.8284271 0 1.5.6715729 1.5 1.5s-.6715729 1.5-1.5 1.5h-14.5c-1.65685425 0-3 1.3431458-3 3 0 .5522847.44771525 1 1 1s1-.4477153 1-1 .44771525-1 1-1h14.5c.9337548.015617 1.8346031-.3447223 2.5-1zm-20.41-27.68 3.16-3.16c.37579638-.3780394.88695542-.5904224 1.42-.59.34977842-.0083662.69530901.0780165 1 .25l3.23 1.8-7.4 7.31-1.75-3.22c-.43445537-.7829539-.29556568-1.7592667.34-2.39zm33.75-16.78c1.1712702-1.1698135 3.0687298-1.1698135 4.24 0 1.1698135 1.1712702 1.1698135 3.0687298 0 4.24l-7.07 7.07-3.51 3.53-6.37 6.36-4.24-4.24zm-21.92 14.84 7.78 7.78c.3755541.3751365.5865733.8841815.5865733 1.415s-.2110192 1.0398635-.5865733 1.415l-9.2 9.19-9.19-9.18z"/></g></g></svg>