<?xml version="1.0" encoding="iso-8859-1"?>
<!-- Generator: Adobe Illustrator 19.0.0, SVG Export Plug-In . SVG Version: 6.00 Build 0)  -->
<svg version="1.1" id="Capa_1" xmlns="http://www.w3.org/2000/svg" xmlns:xlink="http://www.w3.org/1999/xlink" x="0px" y="0px"
	 viewBox="0 0 512 512" style="enable-background:new 0 0 512 512;" xml:space="preserve">
<g>
	<g>
		<path d="M176.333,188.682c-4.142,0-7.5,3.358-7.5,7.5V210.6c0,4.142,3.357,7.5,7.5,7.5c4.142,0,7.5-3.358,7.5-7.5v-14.418
			C183.833,192.04,180.475,188.682,176.333,188.682z"/>
	</g>
</g>
<g>
	<g>
		<path d="M335.667,188.682c-4.142,0-7.5,3.358-7.5,7.5V210.6c0,4.142,3.358,7.5,7.5,7.5c4.142,0,7.5-3.358,7.5-7.5v-14.418
			C343.167,192.04,339.809,188.682,335.667,188.682z"/>
	</g>
</g>
<g>
	<g>
		<path d="M280.599,203.949c-3.118-2.726-7.856-2.408-10.583,0.711c-3.408,3.899-8.517,6.135-14.016,6.135
			c-5.499,0-10.607-2.236-14.016-6.135c-2.727-3.119-7.465-3.438-10.583-0.711c-3.119,2.726-3.438,7.464-0.711,10.583
			c6.257,7.158,15.482,11.264,25.31,11.264c9.828,0,19.053-4.105,25.31-11.264C284.036,211.413,283.718,206.676,280.599,203.949z"/>
	</g>
</g>
<g>
	<g>
		<path d="M365.494,305.703H146.506c-20.117,0-36.484,16.367-36.484,36.484v84.058c0,20.118,16.367,36.484,36.484,36.484h218.988
			c20.117,0,36.484-16.367,36.484-36.484v-84.058C401.978,322.069,385.611,305.703,365.494,305.703z M386.978,426.245
			c0,11.847-9.638,21.484-21.484,21.484H146.506c-11.846,0-21.484-9.638-21.484-21.484v-84.058c0-11.847,9.638-21.484,21.484-21.484
			h218.988c11.846,0,21.484,9.637,21.484,21.484V426.245z"/>
	</g>
</g>
<g>
	<g>
		<path d="M319.398,340.704c-0.66-2.109-2.216-3.818-4.253-4.672c-0.661-0.277-16.416-6.785-37.41-6.785
			c-18.803,0-35.714,5.102-50.263,15.165c-17.017,11.771-27.718,30.615-30.947,54.496c-2.377,17.581,0.109,31.742,0.216,32.337
			c0.618,3.437,3.805,6.134,7.301,6.17c0.997,0.01,1.993,0.016,2.989,0.016c80.518,0,92.343-36.956,101.834-66.647
			c2.821-8.826,5.486-17.163,9.709-23.816C319.758,345.103,320.059,342.811,319.398,340.704z M294.579,366.216
			c-4.399,13.761-8.947,27.991-20.547,38.341c-12.285,10.961-31.592,16.779-58.838,17.726c6.333-13.984,20.82-39.147,46.599-50.147
			c3.81-1.626,5.581-6.032,3.955-9.842c-1.626-3.81-6.03-5.581-9.842-3.955c-20.306,8.664-34.436,24.15-43.765,38.304
			c2.6-14.043,9.033-29.636,23.865-39.895c11.994-8.296,26.033-12.502,41.729-12.502c9.586,0,17.964,1.608,23.681,3.104
			C298.664,353.436,296.598,359.898,294.579,366.216z"/>
	</g>
</g>
<g>
	<g>
		<path d="M460.709,453.011c3.139-15.488,5.188-31.743,6.097-48.384c0.226-4.136-2.944-7.672-7.08-7.897
			c-4.125-0.23-7.671,2.944-7.897,7.08c-0.943,17.272-3.167,34.088-6.609,49.98c-0.551,2.543,0.266,5.201,2.143,7.004
			c0.212,0.204,21.056,20.5,10,32.17c-11.077,11.693-32.063-7.435-32.264-7.619c-1.841-1.714-4.423-2.39-6.87-1.801
			C398.903,488.198,340.13,497,256,497s-142.903-8.802-162.223-13.455c-2.438-0.589-5.02,0.088-6.864,1.791
			c-0.21,0.194-21.197,19.323-32.274,7.629c-11.057-11.67,9.788-31.967,9.99-32.161c1.89-1.804,2.706-4.461,2.152-7.014
			c-18.465-85.246,3.984-168.239,12.504-194.926c5.984,3.238,12.391,5.641,18.612,7.508
			c50.136,15.051,106.347,12.016,158.103,12.016c38.484,0,77.826,0.804,116.082-4.132c14.152-1.562,28.367-3.722,42.015-7.883
			c6.225-1.868,12.636-4.272,18.624-7.513c5.858,18.292,18.286,63.02,19.534,116.56c0.096,4.141,3.553,7.419,7.673,7.323
			c4.141-0.097,7.42-3.532,7.323-7.673c-1.423-60.994-16.412-109.835-21.723-125.342c8.61-8.172,14.521-19.56,14.521-35.751v-20.954
			c0-18.878-8.035-31.224-19.017-39.556c1.964-12.009-1.403-24.753-9.35-34.381c-6.129-7.425-14.372-12.224-23.613-13.958
			c5.528-15.561,0.385-31.192-8.721-41.306c-9.098-10.105-24.086-16.851-40.127-13.001c-1.296-16.441-12.343-28.615-24.764-34.145
			c-12.421-5.531-28.859-5.598-41.946,4.444C284.64,6.627,269.596,0,256,0c-13.597,0-28.641,6.627-36.512,21.12
			c-13.085-10.038-29.524-9.973-41.945-4.444c-12.421,5.53-23.469,17.704-24.765,34.146c-16.036-3.85-31.029,2.896-40.126,13
			c-9.106,10.114-14.249,25.745-8.721,41.306c-9.24,1.735-17.484,6.535-23.613,13.958c-7.961,9.644-11.327,22.417-9.341,34.444
			c-11.848,8.979-19.026,21.585-19.026,39.493v20.954c0,16.194,5.912,27.583,14.525,35.755c-3.2,9.374-9.955,31.022-15.143,60.337
			c-6.216,35.122-11.16,88.09-0.041,142.941c-10.713,11.767-23.102,33.847-7.542,50.27c15.591,16.456,38.169,5.529,50.318-4.309
			C108.529,502.009,163.153,512,256,512s147.471-9.99,161.933-13.028c7.622,6.172,19.346,12.773,30.876,12.772
			c6.849,0,13.632-2.331,19.442-8.463C483.81,486.858,471.421,464.778,460.709,453.011z M66.951,193.024
			c0-11.627,3.616-21.645,15.896-29.53c3.445-2.212,7.203-4.022,10.999-5.539c11.838-4.731,28.522-8.359,51.758-10.707
			c3.688-0.37,7.518-0.71,11.514-1.016c4.05-0.31,7.215-4.009,6.906-8.054c-0.316-4.13-3.925-7.226-8.05-6.906
			c-26.192,2.003-51.436,5.465-70.495,13.888c0.345-5.941,2.566-11.87,6.407-16.524c5.694-6.898,14.007-10.108,23.409-9.036
			c6.401,0.729,10.709-6.739,6.88-11.912c-9.6-12.974-5.125-26.332,1.625-33.828c6.75-7.496,19.565-13.343,33.473-5.153
			c5.564,3.277,12.521-1.805,11.129-8.085c-3.493-15.757,6.028-26.139,15.243-30.242c9.214-4.104,23.301-4.232,32.674,8.907
			c3.734,5.234,12.176,3.43,13.456-2.859C232.991,20.612,245.913,15,256,15c10.087,0,23.007,5.611,26.226,21.426
			c1.285,6.315,9.721,8.096,13.456,2.862c9.373-13.14,23.458-13.01,32.674-8.908c9.215,4.103,18.736,14.484,15.245,30.241
			c-1.385,6.248,5.603,11.34,11.128,8.088c13.906-8.192,26.723-2.344,33.472,5.152c6.75,7.496,11.226,20.854,1.625,33.828
			c-3.7,5,0.355,12.667,6.878,11.913c9.398-1.072,17.716,2.138,23.41,9.036c3.835,4.645,6.052,10.563,6.403,16.493
			c-7.116-3.106-14.516-5.25-21.278-6.879c-48.688-11.729-99.548-9.636-149.24-9.636c-29.128,0-51.379,0.322-70.025,1.015
			c-4.139,0.153-7.37,3.634-7.216,7.773c0.151,4.091,3.679,7.383,7.773,7.219c18.489-0.687,40.563-1.007,69.468-1.007
			c47.166,0,96.806-1.728,143.149,8.644c10.222,2.288,20.485,5.306,29.426,10.917c0.279,0.175,0.568,0.325,0.863,0.46
			c9.233,6.172,15.612,15.244,15.612,29.389c0,0,0,20.928,0,20.954c0,28.531-29.701,37.867-52.892,42.227
			C360.601,262.125,316,263.388,256,263.388s-104.601-1.263-136.157-7.184c-13.992-2.625-28.434-6.068-39.979-14.84
			c-8.606-6.538-12.913-16.638-12.913-27.386V193.024z"/>
	</g>
</g>
<g>
</g>
<g>
</g>
<g>
</g>
<g>
</g>
<g>
</g>
<g>
</g>
<g>
</g>
<g>
</g>
<g>
</g>
<g>
</g>
<g>
</g>
<g>
</g>
<g>
</g>
<g>
</g>
<g>
</g>
</svg>
